<?xml version="1.0" standalone="no"?>
<!DOCTYPE svg PUBLIC "-//W3C//DTD SVG 20010904//EN"
 "http://www.w3.org/TR/2001/REC-SVG-20010904/DTD/svg10.dtd">
<svg version="1.0" xmlns="http://www.w3.org/2000/svg"
 width="1588.000000pt" height="1589.000000pt" viewBox="0 0 1588.000000 1589.000000"
 preserveAspectRatio="xMidYMid meet">

<g transform="translate(0.000000,1589.000000) scale(0.100000,-0.100000)"
fill="#000000" stroke="none">
<path d="M7630 15880 c-1360 -54 -2683 -454 -3830 -1158 -1975 -1213 -3322
-3211 -3694 -5482 -114 -691 -136 -1408 -65 -2099 217 -2134 1272 -4062 2959
-5410 1114 -891 2471 -1468 3890 -1655 401 -53 530 -60 1045 -61 503 0 658 8
1020 56 1757 230 3351 1015 4600 2265 1832 1833 2648 4416 2205 6981 -409
2366 -1891 4432 -4013 5597 -1245 683 -2691 1022 -4117 966z m760 -1180 c1494
-103 2858 -665 3995 -1649 142 -123 448 -425 580 -571 305 -341 556 -679 782
-1055 727 -1208 1051 -2602 938 -4030 -126 -1582 -792 -3040 -1910 -4184
-1074 -1098 -2471 -1792 -3985 -1980 -281 -35 -394 -42 -735 -48 -438 -7 -793
16 -1185 78 -1728 272 -3290 1216 -4352 2631 -698 928 -1146 2033 -1292 3183
-39 305 -50 489 -50 860 0 377 8 530 45 835 151 1251 646 2428 1432 3405 299
371 693 764 1062 1060 1048 839 2338 1353 3650 1455 77 5 158 12 180 13 101 8
715 6 845 -3z"/>
<path d="M4229 12427 c-18 -12 -39 -34 -46 -47 -10 -20 -13 -810 -13 -3849 l0
-3823 39 -39 39 -39 240 0 241 0 3 -255 3 -255 33 -32 32 -33 245 -3 245 -3 0
-242 c0 -222 2 -245 20 -274 42 -69 -245 -63 3139 -61 l3059 3 27 25 c56 52
55 30 55 812 0 806 3 767 -69 815 -62 42 -147 19 -183 -48 -17 -32 -18 -73
-18 -686 l0 -653 -2875 0 -2875 0 0 155 0 155 2689 2 2689 3 27 25 c58 53 55
-5 55 1212 0 709 -4 1136 -10 1159 -16 57 -60 92 -122 96 -65 5 -113 -18 -140
-68 -17 -32 -18 -86 -18 -1096 l0 -1063 -2875 0 -2875 0 0 145 0 145 2676 0
c2998 0 2724 -7 2764 74 20 42 20 53 20 1447 0 1317 -1 1406 -18 1439 -21 43
-75 80 -116 80 -45 0 -97 -31 -118 -71 -17 -32 -18 -95 -18 -1361 l0 -1328
-2875 0 -2875 0 0 3645 0 3645 2875 0 2875 0 0 -2031 c0 -1844 1 -2034 16
-2065 33 -69 125 -95 192 -54 66 41 62 -86 62 1830 l0 1740 155 0 155 0 2
-2290 3 -2290 36 -36 c62 -61 150 -53 203 19 l21 28 3 2000 2 1999 145 0 145
0 0 -2718 c0 -2613 1 -2719 18 -2751 21 -40 73 -71 118 -71 41 0 95 37 116 80
17 33 18 188 18 2820 0 2714 -1 2786 -19 2827 -32 70 -46 73 -321 73 l-240 0
0 240 c0 260 -4 283 -54 330 l-28 25 -239 3 -239 3 0 220 c0 238 -4 263 -55
309 l-27 25 -3052 3 -3053 2 -34 -23z"/>
<path d="M4926 11760 c-15 -5 -37 -17 -48 -27 -50 -44 -48 1 -48 -1320 0
-1159 1 -1240 18 -1272 9 -19 30 -44 45 -55 28 -21 36 -21 935 -24 599 -2 919
1 942 7 20 6 49 24 65 41 l30 31 0 1274 0 1273 -25 27 c-52 57 -14 55 -987 54
-494 0 -911 -5 -927 -9z m1674 -1345 l0 -1085 -750 0 -750 0 0 1085 0 1085
750 0 750 0 0 -1085z"/>
<path d="M7343 11759 c-39 -11 -80 -59 -88 -102 -3 -18 -5 -175 -3 -349 3
-302 4 -318 24 -345 11 -15 36 -36 55 -45 32 -17 109 -18 1182 -18 1244 0
1184 -3 1237 55 l25 27 0 353 0 353 -25 27 c-53 58 7 55 -1232 54 -660 0
-1156 -5 -1175 -10z m2167 -424 l0 -165 -995 0 -995 0 0 165 0 165 995 0 995
0 0 -165z"/>
<path d="M7321 10522 c-50 -25 -76 -65 -76 -117 0 -52 26 -92 76 -117 32 -17
109 -18 1187 -18 1251 0 1195 -2 1240 55 48 61 32 146 -37 192 l-34 23 -1161
0 c-1086 0 -1163 -1 -1195 -18z"/>
<path d="M7309 9937 c-45 -30 -73 -87 -65 -132 9 -47 50 -92 94 -105 24 -6
430 -10 1177 -10 l1141 0 44 23 c87 43 102 133 35 205 l-33 37 -1180 3 -1179
2 -34 -23z"/>
<path d="M7321 9312 c-50 -25 -76 -65 -76 -117 0 -52 26 -92 76 -117 32 -17
109 -18 1187 -18 1251 0 1195 -2 1240 55 48 61 32 146 -37 192 l-34 23 -1161
0 c-1086 0 -1163 -1 -1195 -18z"/>
<path d="M4910 8681 c-51 -27 -73 -62 -73 -116 0 -54 23 -92 74 -117 31 -16
72 -18 407 -18 403 0 413 1 462 55 20 21 25 37 25 80 0 43 -5 59 -25 80 -49
54 -59 55 -462 55 -344 0 -376 -1 -408 -19z"/>
<path d="M6260 8682 c-87 -44 -104 -142 -36 -211 l36 -36 1703 -3 c1605 -2
1704 -1 1736 15 103 53 103 183 0 235 -32 17 -135 18 -1719 18 -1584 0 -1687
-1 -1720 -18z"/>
<path d="M4911 8032 c-51 -25 -74 -63 -74 -117 0 -54 23 -92 74 -117 31 -16
72 -18 407 -18 401 0 413 1 461 53 52 57 31 161 -40 199 -31 17 -65 18 -414
18 -342 0 -383 -2 -414 -18z"/>
<path d="M6265 8036 c-56 -25 -80 -61 -80 -121 0 -60 25 -97 82 -121 48 -21
3378 -21 3427 0 100 42 110 171 17 233 l-34 23 -1691 0 c-1387 -1 -1696 -3
-1721 -14z"/>
<path d="M4911 7402 c-51 -25 -74 -63 -74 -117 0 -54 23 -92 74 -117 31 -16
72 -18 407 -18 403 0 413 1 462 55 20 21 25 37 25 80 0 43 -5 59 -25 80 -49
54 -59 55 -462 55 -335 0 -376 -2 -407 -18z"/>
<path d="M6265 7406 c-56 -25 -80 -61 -80 -122 0 -49 3 -57 38 -91 l37 -38
1703 -3 c1605 -2 1704 -1 1736 15 103 53 103 183 0 235 -32 17 -134 18 -1719
18 -1382 -1 -1690 -3 -1715 -14z"/>
<path d="M4912 6770 c-86 -39 -103 -154 -31 -214 17 -14 40 -28 52 -31 12 -3
195 -4 407 -3 367 3 386 4 412 23 62 45 74 140 26 192 -47 52 -59 53 -455 53
-343 0 -371 -2 -411 -20z"/>
<path d="M6276 6780 c-53 -16 -96 -73 -96 -127 0 -42 32 -94 71 -115 32 -17
106 -18 1730 -18 l1696 0 34 23 c69 46 85 131 37 192 -46 58 57 55 -1765 54
-923 0 -1691 -5 -1707 -9z"/>
<path d="M4911 6122 c-51 -25 -74 -63 -74 -117 0 -54 23 -92 74 -117 31 -16
72 -18 407 -18 403 0 413 1 462 55 20 21 25 37 25 80 0 43 -5 59 -25 80 -49
54 -59 55 -462 55 -335 0 -376 -2 -407 -18z"/>
<path d="M6265 6126 c-56 -25 -80 -61 -80 -122 0 -49 3 -57 38 -91 l37 -38
1703 -3 c1605 -2 1704 -1 1736 15 103 53 103 183 0 235 -32 17 -134 18 -1719
18 -1382 -1 -1690 -3 -1715 -14z"/>
</g>
</svg>
