<?xml version="1.0" standalone="no"?>
<!DOCTYPE svg PUBLIC "-//W3C//DTD SVG 20010904//EN"
 "http://www.w3.org/TR/2001/REC-SVG-20010904/DTD/svg10.dtd">
<svg version="1.0" xmlns="http://www.w3.org/2000/svg"
 width="300.000000pt" height="300.000000pt" viewBox="0 0 300.000000 300.000000"
 preserveAspectRatio="xMidYMid meet">

<g transform="translate(0.000000,300.000000) scale(0.100000,-0.100000)"
fill="#000000" stroke="none">
<path d="M1355 2994 c-216 -31 -368 -75 -516 -149 -426 -214 -709 -582 -810
-1055 -33 -151 -33 -429 0 -580 65 -304 201 -559 412 -769 374 -374 908 -523
1420 -396 846 211 1335 1100 1059 1926 -73 220 -183 400 -345 568 -125 129
-237 213 -385 290 -216 112 -401 159 -650 165 -85 3 -168 2 -185 0z m370 -220
c121 -21 247 -64 368 -126 280 -144 508 -401 621 -700 56 -151 70 -239 70
-448 1 -172 -2 -206 -23 -290 -64 -257 -167 -438 -355 -626 -255 -254 -546
-374 -906 -374 -77 0 -175 7 -224 15 -531 93 -958 520 -1050 1050 -21 117 -21
333 0 450 91 525 517 954 1040 1049 109 20 347 20 459 0z"/>
<path d="M1228 2223 l-3 -108 -217 -3 -218 -2 0 -710 0 -710 423 2 422 3 5
628 5 628 159 -613 c88 -337 163 -621 168 -631 5 -9 16 -17 26 -17 34 0 426
110 432 121 4 6 -15 95 -41 197 -27 103 -102 391 -167 641 -74 284 -124 456
-133 461 -8 4 -98 -16 -209 -46 -107 -29 -205 -56 -217 -59 -22 -5 -23 -5 -25
157 l-3 163 -202 3 -202 2 -3 -107z m352 2 l0 -55 -150 0 -150 0 0 55 0 55
150 0 150 0 0 -55z m0 -155 l0 -40 -150 0 -150 0 0 40 0 40 150 0 150 0 0 -40z
m-350 -50 l0 -40 -195 0 -195 0 0 40 0 40 195 0 195 0 0 -40z m840 -12 c6 -24
13 -48 15 -55 4 -12 -15 -19 -218 -73 -66 -17 -124 -29 -131 -27 -10 4 -39 97
-32 104 4 4 330 92 343 92 7 1 17 -18 23 -41z m-490 -508 l0 -480 -150 0 -150
0 0 480 0 480 150 0 150 0 0 -480z m-350 10 l0 -410 -195 0 -195 0 0 410 0
410 195 0 195 0 0 -410z m880 348 c0 -21 -14 -27 -168 -67 -92 -24 -171 -44
-177 -45 -5 0 -10 10 -10 23 0 23 10 27 155 67 186 51 200 52 200 22z m24 -95
c5 -17 109 -414 139 -534 l14 -56 -175 -47 c-96 -26 -177 -45 -180 -42 -5 5
-162 599 -159 603 3 3 332 91 344 92 6 1 14 -7 17 -16z m184 -703 c6 -24 10
-46 8 -48 -2 -1 -81 -23 -176 -49 -140 -37 -174 -43 -181 -32 -9 15 -23 89
-17 93 12 9 344 92 349 87 3 -3 11 -26 17 -51z m-1088 -60 l0 -40 -195 0 -195
0 0 40 0 40 195 0 195 0 0 -40z m350 -65 l0 -25 -150 0 -150 0 0 25 0 25 150
0 150 0 0 -25z m780 -36 c7 -27 11 -52 9 -54 -6 -6 -351 -97 -353 -93 -8 10
-26 101 -21 107 8 8 338 98 346 94 4 -2 12 -26 19 -54z m-1135 -74 l0 -80
-192 -3 -193 -2 0 78 c0 43 3 82 7 86 4 3 90 5 192 4 l186 -3 0 -80z m355 -30
l0 -55 -150 0 -150 0 0 55 0 55 150 0 150 0 0 -55z"/>
<path d="M907 1834 c-4 -4 -7 -65 -7 -135 0 -106 3 -128 16 -133 23 -9 227 -7
242 2 9 7 12 41 10 138 l-3 129 -126 3 c-69 1 -128 -1 -132 -4z m213 -134 l0
-80 -85 0 -85 0 0 80 0 80 85 0 85 0 0 -80z"/>
</g>
</svg>
