<?xml version="1.0" standalone="no"?>
<!DOCTYPE svg PUBLIC "-//W3C//DTD SVG 20010904//EN"
 "http://www.w3.org/TR/2001/REC-SVG-20010904/DTD/svg10.dtd">
<svg version="1.0" xmlns="http://www.w3.org/2000/svg"
 width="64.000000pt" height="64.000000pt" viewBox="0 0 64.000000 64.000000"
 preserveAspectRatio="xMidYMid meet">

<g transform="translate(0.000000,64.000000) scale(0.100000,-0.100000)"
fill="#000000" stroke="none">
<path d="M45 595 l-25 -24 0 -251 0 -251 25 -24 24 -25 251 0 251 0 24 25 25
24 0 251 0 251 -25 24 -24 25 -251 0 -251 0 -24 -25z m542 -8 c16 -16 18 -41
18 -267 0 -226 -2 -251 -18 -267 -16 -16 -41 -18 -267 -18 -226 0 -251 2 -267
18 -16 16 -18 41 -18 268 l0 251 24 19 c23 19 38 20 267 17 218 -3 245 -5 261
-21z"/>
<path d="M90 551 c-5 -11 -10 -32 -10 -46 0 -14 5 -35 10 -46 10 -18 23 -19
230 -19 207 0 220 1 230 19 13 25 13 67 0 92 -10 18 -23 19 -230 19 -207 0
-220 -1 -230 -19z m448 -48 l-3 -48 -215 0 -215 0 -3 48 -3 47 221 0 221 0 -3
-47z"/>
<path d="M110 505 l0 -35 205 0 205 0 0 35 0 35 -205 0 -205 0 0 -35z m400 0
l0 -25 -190 0 -190 0 0 25 0 25 190 0 190 0 0 -25z"/>
<path d="M90 390 c0 -29 2 -30 45 -30 43 0 45 1 45 30 0 29 -2 30 -45 30 -43
0 -45 -1 -45 -30z"/>
<path d="M210 390 c0 -29 2 -30 44 -30 39 0 44 3 48 25 7 32 3 35 -49 35 -41
0 -43 -1 -43 -30z"/>
<path d="M330 390 c0 -31 0 -31 48 -28 43 3 47 5 47 28 0 23 -4 25 -47 28 -48
3 -48 3 -48 -28z"/>
<path d="M450 391 c0 -30 1 -31 51 -31 49 0 50 1 47 28 -3 25 -7 27 -50 30
-47 3 -48 3 -48 -27z"/>
<path d="M90 289 c0 -30 1 -30 48 -27 43 3 47 5 50 31 3 26 2 27 -47 27 -50 0
-51 -1 -51 -31z m80 6 c0 -10 -11 -15 -35 -15 -24 0 -35 5 -35 15 0 10 11 15
35 15 24 0 35 -5 35 -15z"/>
<path d="M210 289 c0 -30 1 -30 48 -27 43 3 47 5 50 31 3 26 2 27 -47 27 -50
0 -51 -1 -51 -31z m80 6 c0 -10 -11 -15 -35 -15 -33 0 -43 8 -28 23 13 14 63
7 63 -8z"/>
<path d="M330 289 c0 -30 1 -30 48 -27 43 3 47 5 50 31 3 26 2 27 -47 27 -50
0 -51 -1 -51 -31z m80 6 c0 -10 -11 -15 -35 -15 -33 0 -43 8 -28 23 13 14 63
7 63 -8z"/>
<path d="M450 289 c0 -30 1 -30 48 -27 43 3 47 5 50 31 3 26 2 27 -47 27 -50
0 -51 -1 -51 -31z"/>
<path d="M90 200 c0 -31 0 -31 48 -28 43 3 47 5 47 28 0 23 -4 25 -47 28 -48
3 -48 3 -48 -28z m80 -6 c0 -11 -8 -14 -32 -12 -46 4 -49 28 -4 28 26 0 36 -4
36 -16z"/>
<path d="M210 200 c0 -31 0 -31 48 -28 43 3 47 5 47 28 0 23 -4 25 -47 28 -48
3 -48 3 -48 -28z m80 -6 c0 -11 -8 -14 -32 -12 -46 4 -49 28 -4 28 26 0 36 -4
36 -16z"/>
<path d="M330 200 c0 -31 0 -31 48 -28 43 3 47 5 47 28 0 23 -4 25 -47 28 -48
3 -48 3 -48 -28z m80 -6 c0 -11 -8 -14 -32 -12 -46 4 -49 28 -4 28 26 0 36 -4
36 -16z"/>
<path d="M450 201 c0 -30 1 -31 51 -31 49 0 50 1 47 28 -3 25 -7 27 -50 30
-47 3 -48 3 -48 -27z"/>
<path d="M90 100 c0 -31 0 -31 48 -28 43 3 47 5 47 28 0 23 -4 25 -47 28 -48
3 -48 3 -48 -28z m80 5 c0 -10 -11 -15 -35 -15 -33 0 -43 8 -28 23 13 14 63 7
63 -8z"/>
<path d="M210 99 c0 -30 1 -30 48 -27 43 3 47 5 50 31 3 26 2 27 -47 27 -50 0
-51 -1 -51 -31z m80 6 c0 -10 -11 -15 -35 -15 -33 0 -43 8 -28 23 13 14 63 7
63 -8z"/>
<path d="M330 99 c0 -30 1 -30 48 -27 43 3 47 5 50 31 3 26 2 27 -47 27 -50 0
-51 -1 -51 -31z m80 6 c0 -10 -11 -15 -35 -15 -33 0 -43 8 -28 23 13 14 63 7
63 -8z"/>
<path d="M450 99 c0 -30 1 -30 48 -27 43 3 47 5 50 31 3 26 2 27 -47 27 -50 0
-51 -1 -51 -31z"/>
</g>
</svg>
