<?xml version="1.0" encoding="iso-8859-1"?>
<!-- Uploaded to: SVG Repo, www.svgrepo.com, Generator: SVG Repo Mixer Tools -->
<svg fill="#000000" height="800px" width="800px" version="1.1" id="Layer_1" xmlns="http://www.w3.org/2000/svg" xmlns:xlink="http://www.w3.org/1999/xlink" 
	 viewBox="0 0 512.001 512.001" xml:space="preserve">
<g>
	<g>
		<path d="M314.801,290.806l-34.999-34.998l25.837-25.837c14.577,9.805,31.487,14.722,48.404,14.722
			c22.222,0,44.444-8.458,61.36-25.375l96.599-96.599l-23.609-23.609l-74.721,74.721l-9.428-9.428l74.721-74.721l-23.609-23.61
			l-74.721,74.721l-9.429-9.429l74.721-74.721l-23.609-23.609l-74.721,74.721l-9.429-9.429l74.721-74.721L389.282,0l-96.599,96.598
			c-16.39,16.39-25.416,38.181-25.416,61.36c0,12.172,2.512,23.952,7.251,34.779l-89.307-89.307
			c-35.535-35.535-86.43-52.353-136.136-44.984c-11.936,1.768-21.702,9.984-25.487,21.441c-3.785,11.456-0.837,23.875,7.695,32.406
			l172.408,172.408l-6.53,6.53l-28.805-28.806L0.001,430.781l81.221,81.221l168.354-168.354l-28.806-28.806l35.423-35.423
			l34.999,34.999l-28.806,28.806L430.74,511.577l81.219-81.221L343.607,262.001L314.801,290.806z M314.604,121.979l75.415,75.415
			c-20.924,19.107-53.492,18.549-73.727-1.686c-10.084-10.084-15.637-23.491-15.637-37.751
			C300.655,144.516,305.592,131.837,314.604,121.979z M81.221,464.783l-34.003-34.002l121.138-121.137l34.002,34.002L81.221,464.783
			z M227.299,261.093L57.241,91.033c38.255-4.634,77.046,8.69,104.361,36.005l99.877,99.877L227.299,261.093z M430.74,464.358
			L309.603,343.221l34.003-34.002l121.137,121.137L430.74,464.358z"/>
	</g>
</g>
</svg>