<?xml version="1.0" standalone="no"?>
<!DOCTYPE svg PUBLIC "-//W3C//DTD SVG 20010904//EN"
 "http://www.w3.org/TR/2001/REC-SVG-20010904/DTD/svg10.dtd">
<svg version="1.0" xmlns="http://www.w3.org/2000/svg"
 width="48.000000pt" height="48.000000pt" viewBox="0 0 48.000000 48.000000"
 preserveAspectRatio="xMidYMid meet">

<g transform="translate(0.000000,48.000000) scale(0.100000,-0.100000)"
fill="#000000" stroke="none">
<path d="M380 433 c0 -7 9 -22 20 -33 11 -11 26 -20 33 -20 9 0 9 2 -1 8 -8 5
-10 16 -6 27 6 15 4 17 -11 11 -11 -4 -22 -2 -27 6 -6 10 -8 10 -8 1z"/>
<path d="M350 421 c0 -5 5 -13 10 -16 6 -3 10 -2 10 4 0 5 -4 13 -10 16 -5 3
-10 2 -10 -4z"/>
<path d="M348 364 c-13 -13 -19 -14 -36 -3 -16 10 -24 11 -33 2 -7 -7 -21 -8
-43 -2 -63 19 -150 -22 -179 -84 -68 -142 78 -288 220 -220 62 29 103 116 84
179 -6 22 -5 36 2 43 9 9 8 17 -1 32 -11 18 -11 24 2 38 28 31 14 45 -16 15z
m-158 -73 c0 -5 -11 -12 -24 -15 -15 -4 -28 -17 -35 -37 -6 -17 -15 -28 -21
-24 -30 19 13 85 55 85 14 0 25 -4 25 -9z"/>
<path d="M405 360 c3 -5 11 -10 16 -10 6 0 7 5 4 10 -3 6 -11 10 -16 10 -6 0
-7 -4 -4 -10z"/>
</g>
</svg>
