<?xml version="1.0" standalone="no"?>
<!DOCTYPE svg PUBLIC "-//W3C//DTD SVG 20010904//EN"
 "http://www.w3.org/TR/2001/REC-SVG-20010904/DTD/svg10.dtd">
<svg version="1.0" xmlns="http://www.w3.org/2000/svg"
 width="360.000000pt" height="360.000000pt" viewBox="0 0 360.000000 360.000000"
 preserveAspectRatio="xMidYMid meet">

<g transform="translate(0.000000,360.000000) scale(0.100000,-0.100000)"
fill="#000000" stroke="none">
<path d="M1610 3410 c-545 -76 -1002 -406 -1253 -906 -105 -209 -180 -524
-176 -731 l2 -58 8 75 c85 743 613 1334 1313 1469 377 73 776 3 1101 -194 450
-272 736 -725 805 -1275 8 -70 9 -67 5 40 -24 615 -396 1180 -946 1439 -210
98 -389 140 -629 146 -91 2 -194 0 -230 -5z"/>
<path d="M1675 2799 c-332 -43 -631 -258 -784 -565 -70 -140 -105 -275 -115
-439 l-5 -90 19 94 c64 311 215 546 457 708 175 117 339 166 553 166 105 0
155 -4 223 -21 295 -73 536 -262 675 -530 58 -113 86 -193 111 -323 21 -106
26 -79 11 56 -16 133 -45 237 -101 354 -86 182 -203 319 -362 425 -145 97
-275 145 -447 166 -96 11 -136 11 -235 -1z"/>
<path d="M1725 2356 c-67 -17 -109 -40 -155 -86 -171 -171 -125 -462 89 -567
48 -24 68 -28 141 -28 73 0 93 4 142 28 166 82 239 291 161 459 -51 109 -129
173 -241 197 -63 13 -72 13 -137 -3z"/>
<path d="M1615 1629 c-158 -26 -239 -106 -282 -276 -27 -107 -24 -403 5 -551
49 -244 151 -455 264 -543 72 -56 118 -74 198 -74 80 0 126 18 198 74 113 88
215 299 264 543 29 148 32 444 5 551 -43 172 -124 250 -287 276 -75 12 -292
13 -365 0z"/>
</g>
</svg>
